Coordinates
version=1
nRows=5
nColumns=63
inDegrees=yes

Units are S.I. units (second, meters, Newtons, ...)
If the header above contains a line with 'inDegrees', this indicates whether rotational values are in degrees (yes) or radians (no).

endheader
time	pelvis_tilt	pelvis_list	pelvis_rotation	pelvis_tx	pelvis_ty	pelvis_tz	hip_flexion_r	hip_adduction_r	hip_rotation_r	knee_angle_r	knee_angle_r_beta	ankle_angle_r	subtalar_angle_r	mtp_angle_r	hip_flexion_l	hip_adduction_l	hip_rotation_l	knee_angle_l	knee_angle_l_beta	ankle_angle_l	subtalar_angle_l	mtp_angle_l	L5_S1_Flex_Ext	L5_S1_Lat_Bending	L5_S1_axial_rotation	L4_L5_Flex_Ext	L4_L5_Lat_Bending	L4_L5_axial_rotation	L3_L4_Flex_Ext	L3_L4_Lat_Bending	L3_L4_axial_rotation	L2_L3_Flex_Ext	L2_L3_Lat_Bending	L2_L3_axial_rotation	L1_L2_Flex_Ext	L1_L2_Lat_Bending	L1_L2_axial_rotation	L1_T12_Flex_Ext	L1_T12_Lat_Bending	L1_T12_axial_rotation	Abs_r3	Abs_r2	Abs_r1	Abs_t1	Abs_t2	neck_flexion	neck_bending	neck_rotation	arm_flex_r	arm_add_r	arm_rot_r	elbow_flex_r	pro_sup_r	wrist_flex_r	wrist_dev_r	arm_flex_l	arm_add_l	arm_rot_l	elbow_flex_l	pro_sup_l	wrist_flex_l	wrist_dev_l
      3.59322034	      1.78864822	    -19.02479537	    124.78808780	      0.16872511	      0.36361637	      0.65309169	      6.96551161	     -3.79895802	    -21.38332370	     11.55774483	      0.20172070	     22.63092061	     -6.72071748	      0.00000000	      8.94244177	      4.28185513	      2.41678807	      7.90278533	      0.13792962	     18.88119917	     13.34400465	      0.00000000	     -0.43708645	     -0.09306931	      0.15444661	     -0.81171325	     -0.12378219	      0.16409952	     -0.71808933	     -0.22628873	      0.16409952	     -0.49954611	     -0.22628873	      0.13514078	     -0.40587848	     -0.18978695	      0.12548787	     -0.24975120	     -0.14416437	      0.11583496	     -3.12206482	     -1.05281870	      0.85898571	      0.00000000	      0.00000000	      9.80926997	      2.79395842	    -15.98198226	     34.53289228	    -14.28741025	     20.75850275	    142.20068408	     89.10535387	     -1.22705664	     20.96204163	     11.22248947	    -14.63378923	     59.07650637	     21.42602764	     81.60288049	    -15.71240764	     -6.14443130
      3.61016949	      2.41886011	    -18.81866700	    125.38524039	      0.16737346	      0.36366032	      0.65219499	      6.80349642	     -3.31747805	    -24.49715048	     11.22955059	      0.19599263	     22.76720067	     -3.41576225	      0.00000000	      8.92690932	      3.71998004	      3.18749668	      7.66987541	      0.13386458	     18.90832328	     13.17167278	      0.00000000	     -0.42684605	     -0.02553946	      0.15711531	     -0.79269579	     -0.03396749	      0.16693502	     -0.70126537	     -0.06209665	      0.16693502	     -0.48784235	     -0.06209665	      0.13747590	     -0.39636924	     -0.05208007	      0.12765619	     -0.24389983	     -0.03956063	      0.11783648	     -3.04891862	     -0.28890752	      0.87382823	      0.00000000	      0.00000000	      8.65406480	      1.42771306	    -17.55976087	     34.59075358	    -14.36032378	     19.45858257	    142.99750663	     89.05137896	      2.97403966	     25.08107394	     10.69032621	    -14.11488813	     57.05187010	     21.51667288	     80.42532346	    -15.89007336	     -6.44372022
      3.62711864	      2.71839715	    -18.86719331	    125.53082085	      0.16711688	      0.36360925	      0.65087800	      6.89281311	     -3.02813019	    -25.04733708	     11.06039564	      0.19304032	     22.53213380	     -2.99740398	      0.00000000	      8.95443574	      3.47578082	      3.28530886	      7.43508315	      0.12976668	     18.78651376	     13.23012357	      0.00000000	     -0.41642832	     -0.01574138	      0.24489601	     -0.77334904	     -0.02093603	      0.26020201	     -0.68415009	     -0.03827358	      0.26020201	     -0.47593593	     -0.03827358	      0.21428401	     -0.38669534	     -0.03209981	      0.19897801	     -0.23794714	     -0.02438339	      0.18367201	     -2.97450587	     -0.17806959	      1.36203815	      0.00000000	      0.00000000	      7.78251430	      0.99533358	    -18.67853704	     34.11535164	    -14.50948831	     18.82720223	    143.41349522	     89.06914720	      3.21030620	     24.99669566	     10.60786518	    -13.91270866	     56.47235226	     21.61448249	     79.81919705	    -15.94933206	     -5.92142876
      3.64406780	      2.94964030	    -18.90197068	    125.67852464	      0.16701551	      0.36355067	      0.64936326	      6.90189529	     -2.79240223	    -25.82190620	     10.89864326	      0.19021721	     22.34733418	     -2.25275069	      0.00000000	      8.92829679	      3.26546651	      3.37111566	      7.20896992	      0.12582026	     18.70010403	     13.26670072	      0.00000000	     -0.40994152	     -0.01608093	      0.31738678	     -0.76130241	     -0.02138764	      0.33722346	     -0.67349293	     -0.03909918	      0.33722346	     -0.46852217	     -0.03909918	      0.27771343	     -0.38067170	     -0.03279223	      0.25787676	     -0.23424059	     -0.02490936	      0.23804009	     -2.92817132	     -0.18191071	      1.76521007	      0.00000000	      0.00000000	      6.82520169	      0.59839897	    -19.88070691	     33.48701695	    -14.51492756	     17.82225451	    143.88280304	     89.13035724	      3.94481498	     24.56062425	     10.51479261	    -13.83413907	     55.89329242	     21.77407445	     79.13255576	    -15.87629055	     -5.30882643
      3.66101695	      3.07615703	    -18.84902661	    125.72734094	      0.16711875	      0.36358039	      0.64808265	      6.90824964	     -2.60984504	    -26.19724067	     10.94651653	      0.19105276	     22.01302910	     -2.14685911	      0.00000000	      8.84956145	      3.08448583	      3.36174390	      7.12935807	      0.12443077	     18.62539655	     13.26144206	      0.00000000	     -0.42959388	     -0.01329292	      0.33578547	     -0.79779880	     -0.01767959	      0.35677206	     -0.70577979	     -0.03232042	      0.35677206	     -0.49098285	     -0.03232042	      0.29381229	     -0.39892088	     -0.02710693	      0.27282570	     -0.24546994	     -0.02059074	      0.25183910	     -3.06854613	     -0.15037222	      1.86753806	      0.00000000	      0.00000000	      6.12581533	      0.52463516	    -19.96069555	     33.21012750	    -14.35761120	     17.21235766	    144.25570561	     89.22013286	      4.10684856	     24.34577760	     10.45331616	    -13.88895768	     55.71098013	     21.86129420	     78.94260199	    -15.91674879	     -5.22406508
